<?xml version="1.0" encoding="UTF-8"?> <svg xmlns="http://www.w3.org/2000/svg" id="Capa_1" data-name="Capa 1" viewBox="0 0 86.7668 93.0221"><g><g><path d="M0,50.5978c4.3964-4.3948,11.523-4.3938,15.9183.0022l4.3179,4.3186c1.2857,1.2875,2.6906,1.2853,3.9786-.0026l12.3259-12.39h0c4.6522,4.6534,4.6521,12.1969-.0004,16.8502l-5.5379,5.6059c-4.9147,4.9143-11.7019,4.9143-16.6183,0L0,50.5978h0Z" fill="#fff"></path><path d="M50.2465,28.1709c2.9015-2.9025,7.6068-2.9025,10.5084,0h0c1.2875,1.2858,2.6929,1.2858,3.9808,0l5.1806-5.1816c4.6528-4.6536,12.1971-4.6541,16.8505-.0011h0s-15.2439,15.2461-15.2439,15.2461c-4.9142,4.9142-11.7041,4.9142-16.6183,0l-7.3591-7.3616,2.7009-2.7018Z" fill="#fff"></path><path d="M48.9651,91.4491c-3.5262-3.5263-3.5259-9.2436.0006-12.7696l7.5922-7.5072c1.2857-1.2875,1.2857-2.6907-.0022-3.9791l-7.486-7.4868c-4.6532-4.6536-4.653-12.1982.0002-16.8517h0s17.5517,17.5513,17.5517,17.5513c4.9142,4.9142,4.9142,11.7019,0,16.6165l-16.0837,15.9995-1.5729-1.573Z" fill="#fff"></path></g><path d="M41.7106,14.5393c-4.9143-4.9169-11.7019-4.9169-16.6161,0l-14.4594,14.2078h0c4.6545,4.6532,12.1998,4.6524,16.8533-.0019l4.3911-4.1426c1.288-1.288,2.6911-1.288,3.9813,0l5.3193,5.3198.5292-.5291c4.1027-4.1013,4.1032-10.7521.0013-14.8541h0Z" fill="#fff"></path></g><path d="M55.8485,0h-18.9353s10.08.8739,9.6036,7.8239l.0076-.0063c-.096.5411-.1548,1.0951-.1548,1.6638,0,5.2347,4.2427,9.4798,9.479,9.4798s9.4797-4.2451,9.4797-9.4798S61.0831,0,55.8485,0Z" fill="#fff"></path><path d="M50.538,93.0221H1.4611l43.3256-4.5024s.9801,4.5024,5.7513,4.5024Z" fill="#fff"></path></svg> 